<svg xmlns="http://www.w3.org/2000/svg"  height="35" width="35" viewBox="0 0 16 16" class="npv-header__logo"><path fill="#b3b3b3" d="M8 0a8 8 0 1 0 0 16A8 8 0 0 0 8 0zm3.669 11.539a.498.498 0 0 1-.686.166c-1.878-1.148-4.243-1.408-7.028-.772a.499.499 0 0 1-.222-.972c3.048-.696 5.662-.396 7.77.892a.5.5 0 0 1 .166.686zm.979-2.178a.624.624 0 0 1-.858.205c-2.15-1.322-5.428-1.705-7.972-.932a.624.624 0 1 1-.362-1.194c2.905-.882 6.517-.455 8.987 1.063a.624.624 0 0 1 .205.858zm.084-2.269C10.153 5.561 5.9 5.42 3.438 6.167a.748.748 0 1 1-.434-1.432c2.826-.857 7.523-.692 10.492 1.07a.748.748 0 0 1-.764 1.287z"></path></svg>